<svg width="20" height="22" viewBox="0 0 20 22" fill="none" xmlns="http://www.w3.org/2000/svg">
<path fill-rule="evenodd" clip-rule="evenodd" d="M9.09122 1.69185H16.3637C17.3679 1.69185 18.1819 2.44932 18.1819 3.3837V13.5348C18.1819 14.4692 17.3679 15.2267 16.3637 15.2267H14.545V6.77331C14.545 5.83892 13.731 5.08146 12.7269 5.08146H7.27309V3.3837C7.27309 2.44932 8.0871 1.69185 9.09122 1.69185ZM5.45496 5.08146V3.3837C5.45496 1.51493 7.08297 0 9.09122 0H16.3637C18.372 0 20 1.51493 20 3.3837V13.5348C20 15.4036 18.372 16.9185 16.3637 16.9185H14.545V20.3081C14.545 21.2425 13.731 22 12.7269 22H1.81813C0.814004 22 0 21.2425 0 20.3081V6.77331C0 5.83893 0.814004 5.08146 1.81813 5.08146H5.45496Z" fill="#BABEC7"/>
</svg>
